<svg version="1.1" class="indigo-animation__plane" id="Layer_1" xmlns="http://www.w3.org/2000/svg" xmlns:xlink="http://www.w3.org/1999/xlink" viewBox="0 0 600 181.04"><defs><style>.cls-1{fill:url(#linear-gradient)}.cls-2{fill:url(#linear-gradient-2)}.cls-3{fill:#f7fbf7}.cls-4{fill:#2c2a6a}.cls-5{fill:#17228a}.cls-6{fill:#37afe2}.cls-7{fill:#262625}.cls-8{fill:#8fbae4}.cls-9{fill:#95a2a9}.cls-10{fill:#cfcfd4}.cls-11{fill:#e5e6ec}.cls-12{fill:#989698}.cls-13{fill:#fff}.cls-14{fill:#21408f;fill-rule:evenodd}.cls-15{fill:#23325f}</style><linearGradient id="linear-gradient" x1="6.44" y1="114.28" x2="6.44" y2="114.28" gradientTransform="translate(-1.55 -8.76)" gradientUnits="userSpaceOnUse"><stop offset="0" stop-color="#fff"></stop><stop offset="1" stop-color="#a9a9a9"></stop></linearGradient><linearGradient id="linear-gradient-2" x1="5.72" y1="114.35" x2="5.72" y2="114.35" xlink:href="#linear-gradient"></linearGradient></defs><title>Asset 3</title><g id="Layer_2" data-name="Layer 2"><g id="Layer_1-2" data-name="Layer 1"><path class="cls-1" d="M5.43 105.49l-.01.01.01-.01z"></path><path class="cls-2" d="M4.7 105.57z"></path><path class="cls-3" d="M3.76 105.62c-1.6.08-3.79.15-3.79.15l.05 11h3.79l-.05-11z"></path><path class="cls-4" d="M5.43 105.49c3.06-.48 31.79-5.73 31.79-5.73zM3.79 105.62l.9-.05zM22.92 46.4l14.3 53.36L26.57 60zM5.42 105.5l-.72.07h.48z"></path><path class="cls-3" d="M595.43 126.71c-5.32-4.64-17.15-10.24-17.15-10.24l-.13-.14-3.58.2a8.58 8.58 0 0 1-2.31-1.53c-1-1-4.93-5.45-4.93-5.45l3.82.06c-3.21-2.88-6.88-5.85-9.56-7.1-6-2.78-20.56-7.9-46.05-10.05-1.54-.19-3.27-.32-4.08-.38h-68.81l-115.75.64-160.66 1.48s-23.11.54-32.73-1.47S114.9 84.18 108 76 62.68 24.39 61.05 22.34 46 5 46 5 42 .4 36.55.11s-26 .12-26 .12l2.39 8.91c7.87 3.1 24 16.69 36.67 28.94s51.8 53.21 54.48 56.84c7.05 9.52 9.75 13.57 26.32 27.11a134.56 134.56 0 0 0 51.89 24.68c-23.67-4.69-34.23-10.8-51.36-21.54-20.44-12.82-27.3-24-33.13-30-1.69-1.73-20.52-18.71-40.5-36.69a201.1 201.1 0 0 0-38.5-27.42l4.11 15.34c30.46 13.44 66.71 50.16 66.71 50.16s24.29 30 62.92 46.4 75.76 8.06 90.95 5c5.9-1.19 19.62-3.93 36.46-7a436.722 436.722 0 0 1-25.33-8.76c-3.77 2.73-4.58 5.35-4.58 5.35h-4L246 125.8l-7.26-6.8h3l18.82 8 20-.07h.35c.51 0 1.19 0 2.1.07h.31c2.26.14 5.86.43 11.73.93h.28c2.63.22 23.26 1.85 42.15 3.9 9.72-1.24 18.95-2.19 27-2.68 38.8-2.35 76.84 5.34 97.77 11.76s49 15.26 49 15.26l10.35-.16 6.72-.12h2-.18c-4.33-.45-37.88-9.71-59.8-17.22-32.86-11.26-77.14-15.15-77.14-15.15a471 471 0 0 1 79.92 10.31c34.42 7.77 82.19 20 82.19 20 12.63-1.67 26.48-4.49 36.7-9.08s9.87-13.2 3.42-18.04zm-435.82-8.81a1.21 1.21 0 0 1-1.22 1.23 1.23 1.23 0 0 1-1.23-1.22v-1.33a1.23 1.23 0 0 1 1.22-1.23 1.24 1.24 0 0 1 1.24 1.22zm8.38.83a1.22 1.22 0 0 1-.86.36 1.24 1.24 0 0 1-1.23-1.22v-1.33a1.23 1.23 0 1 1 2.45 0v1.33a1.26 1.26 0 0 1-.35.86zm7.87.32a1.22 1.22 0 0 1-1.22-1.22v-1.33a1.23 1.23 0 1 1 2.45 0v1.33a1.23 1.23 0 0 1-1.23 1.22zm9.95-1.27a1.23 1.23 0 0 1-2.45 0v-1.33a1.23 1.23 0 0 1 2.46 0zm8.73 0a1.22 1.22 0 0 1-1.22 1.23 1.24 1.24 0 0 1-1.23-1.22v-1.33a1.23 1.23 0 1 1 2.45 0zm7.52 1.19a1.22 1.22 0 0 1-1.22-1.22v-1.33a1.23 1.23 0 1 1 2.45 0v1.33a1.24 1.24 0 0 1-1.23 1.18zm9.59-.41a1.17 1.17 0 0 1-.86.37 1.22 1.22 0 0 1-1.22-1.22v-1.33a1.23 1.23 0 1 1 2.45 0v1.33a1.18 1.18 0 0 1-.37.81zm9.09-.9a1.17 1.17 0 0 1-.35.86 1.22 1.22 0 0 1-2.1-.85v-1.37a1.22 1.22 0 0 1 .35-.87 1.3 1.3 0 0 1 .87-.37 1.24 1.24 0 0 1 1.23 1.22zm7.52 1.19a1.22 1.22 0 0 1-1.22-1.22v-1.34a1.18 1.18 0 0 1 .36-.86 1.21 1.21 0 0 1 .86-.37 1.23 1.23 0 0 1 1.23 1.22v1.33a1.24 1.24 0 0 1-1.23 1.2zm9.59-.41a1.2 1.2 0 0 1-.86.36 1.22 1.22 0 0 1-1.22-1.22v-1.33A1.24 1.24 0 0 1 237 115a1.23 1.23 0 0 1 1.23 1.22v1.33a1.19 1.19 0 0 1-.38.85zm9.09-.91a1.23 1.23 0 0 1-2.45 0v-1.33a1.23 1.23 0 0 1 1.22-1.23 1.24 1.24 0 0 1 1.23 1.22zm7.52 1.19a1.22 1.22 0 0 1-1.22-1.22v-1.33a1.25 1.25 0 0 1 1.22-1.23 1.23 1.23 0 0 1 1.23 1.22v1.33a1.23 1.23 0 0 1-1.23 1.19zm8.73 0a1.22 1.22 0 0 1-1.22-1.22v-1.33a1.22 1.22 0 0 1 .36-.86 1.19 1.19 0 0 1 .86-.37 1.23 1.23 0 0 1 1.23 1.22v1.33a1.22 1.22 0 0 1-1.23 1.15zm9.95-1.27a1.23 1.23 0 0 1-2.45 0v-1.33a1.17 1.17 0 0 1 .35-.86 1.19 1.19 0 0 1 .87-.37 1.24 1.24 0 0 1 1.23 1.22zm8.59 0a1.21 1.21 0 0 1-1.22 1.23 1.23 1.23 0 0 1-1.23-1.22V116a1.22 1.22 0 0 1 1.22-1.23 1.24 1.24 0 0 1 1.23 1.22zm7.42 1.19a1.22 1.22 0 0 1-1.22-1.22V116a1.26 1.26 0 0 1 .36-.87 1.22 1.22 0 0 1 2.09.86v1.33a1.22 1.22 0 0 1-1.23 1.2zm9.45-.4a1.2 1.2 0 0 1-.86.36 1.22 1.22 0 0 1-1.22-1.22v-1.33a1.23 1.23 0 1 1 2.45 0v1.33a1.2 1.2 0 0 1-.37.74zm9.14-.91a1.23 1.23 0 0 1-2.45 0V116a1.23 1.23 0 0 1 1.22-1.23 1.24 1.24 0 0 1 1.24 1.22zm8.09.83a1.22 1.22 0 0 1-.86.36 1.22 1.22 0 0 1-1.22-1.22v-1.33a1.26 1.26 0 0 1 .36-.87 1.22 1.22 0 0 1 2.09.86v1.33a1.24 1.24 0 0 1-.37.71zm9-.91a1.23 1.23 0 0 1-2.45 0v-1.33a1.21 1.21 0 0 1 1.22-1.23 1.24 1.24 0 0 1 1.23 1.22zm8.78 0a1.21 1.21 0 0 1-.35.87 1.23 1.23 0 0 1-.87.36 1.24 1.24 0 0 1-1.23-1.22v-1.33a1.23 1.23 0 0 1 2.45 0zm8.33.82a1.19 1.19 0 0 1-.86.37 1.22 1.22 0 0 1-1.22-1.22v-1.33a1.23 1.23 0 1 1 2.45 0v1.33a1.22 1.22 0 0 1-.31.69zm9-.9a1.17 1.17 0 0 1-.35.86 1.19 1.19 0 0 1-.87.37 1.24 1.24 0 0 1-1.23-1.22v-1.33a1.21 1.21 0 0 1 1.22-1.23 1.22 1.22 0 0 1 1.23 1.22zm9.88-.05a1.19 1.19 0 0 1-.35.87 1.23 1.23 0 0 1-2.1-.86v-1.33a1.22 1.22 0 0 1 1.22-1.23 1.24 1.24 0 0 1 1.23 1.22zm12.29 1.17a1.22 1.22 0 0 1-1.22-1.22v-1.33a1.23 1.23 0 1 1 2.45 0v1.33a1.23 1.23 0 0 1-1.15 1.06zM387.4 117a1.17 1.17 0 0 1-.35.86 1.19 1.19 0 0 1-.87.37 1.24 1.24 0 0 1-1.23-1.22v-1.33a1.21 1.21 0 0 1 1.22-1.23 1.22 1.22 0 0 1 1.23 1.22zm8.33.82a1.17 1.17 0 0 1-.86.37 1.22 1.22 0 0 1-1.22-1.22v-1.33a1.23 1.23 0 1 1 2.45 0v1.33a1.18 1.18 0 0 1-.29.69zm7.78.33a1.22 1.22 0 0 1-1.22-1.22v-1.33a1.24 1.24 0 0 1 .36-.87 1.22 1.22 0 0 1 2.09.86v1.33a1.23 1.23 0 0 1-1.15 1.08zm9.52-1.27a1.22 1.22 0 0 1-.36.87 1.2 1.2 0 0 1-.86.36 1.23 1.23 0 0 1-1.23-1.22v-1.49a1.24 1.24 0 0 1 .36-.87 1.22 1.22 0 0 1 .86-.36 1.24 1.24 0 0 1 1.24 1.22zm8.28 1.19a1.22 1.22 0 0 1-1.22-1.22v-1.33a1.23 1.23 0 0 1 .36-.87 1.27 1.27 0 0 1 .86-.37 1.23 1.23 0 0 1 1.23 1.22v1.33a1.24 1.24 0 0 1-1.15 1.08zm8.83-.41a1.19 1.19 0 0 1-.86.37 1.22 1.22 0 0 1-1.22-1.22v-1.33a1.23 1.23 0 0 1 2.45 0v1.33a1.22 1.22 0 0 1-.29.69zm8-.9a1.23 1.23 0 0 1-2.45 0v-1.33a1.17 1.17 0 0 1 .35-.86 1.19 1.19 0 0 1 .87-.37 1.24 1.24 0 0 1 1.23 1.22zm8.83 0a1.23 1.23 0 0 1-2.45 0v-1.33a1.23 1.23 0 0 1 2.46 0zm7.61 1.19a1.22 1.22 0 0 1-1.22-1.22v-1.53a1.23 1.23 0 1 1 2.45 0v1.33a1.22 1.22 0 0 1-1.16 1.22zm8.83 0a1.22 1.22 0 0 1-1.22-1.22v-1.33a1.24 1.24 0 0 1 .36-.87 1.22 1.22 0 0 1 2.09.86v1.33a1.23 1.23 0 0 1-1.16.99zm9.5-1.27a1.21 1.21 0 0 1-.35.87 1.23 1.23 0 0 1-.87.36 1.24 1.24 0 0 1-1.23-1.22v-1.33a1.21 1.21 0 0 1 1.22-1.23 1.23 1.23 0 0 1 1.23 1.22zm8.83 0a1.21 1.21 0 0 1-1.22 1.23 1.23 1.23 0 0 1-1.23-1.22v-1.33a1.21 1.21 0 0 1 1.22-1.23 1.24 1.24 0 0 1 1.23 1.22zm8.83 0a1.23 1.23 0 0 1-2.45 0V115a1.24 1.24 0 0 1 .36-.87 1.22 1.22 0 0 1 .86-.36 1.24 1.24 0 0 1 1.24 1.22zm8.47.82a1.17 1.17 0 0 1-.86.37 1.22 1.22 0 0 1-1.22-1.22V115a1.23 1.23 0 1 1 2.45 0v1.33a1.18 1.18 0 0 1-.3.85zm8 .33a1.22 1.22 0 0 1-1.22-1.22V115a1.24 1.24 0 0 1 1.22-1.24 1.23 1.23 0 0 1 1.23 1.22v1.33a1.24 1.24 0 0 1-1.19 1.2zm48.66.83a2.1 2.1 0 0 1-1.92-1.91 22.11 22.11 0 0 1-.31-4.42l1.81-2.6 4.9-.12 1 8.64zm15.66-1s-5 .7-7 .7-1.83-1.72-1.83-1.72l-.8-6.72h4.42l6 6.41c.69.67-.75.98-.75.98z"></path><path class="cls-5" d="M367.66 150.77c-3.69.91-6.25 1.61-6.25 1.61l-14.61 2.12a37.69 37.69 0 0 0-1.22 7.21l-31.21.15s-5 .34-16.3-.14-25.5-2.26-32.63-3-59.82-.05-75.81-1.38S128.69 148 123 146.77s-57.07-12.26-72.42-16.62-46.43-13.38-46.43-13.38h-.34l-.05-11v-.16l.9-.05h.72c3.06-.48 31.8-5.73 31.8-5.73L26.56 60l-3.64-13.6c30.46 13.44 66.71 50.16 66.71 50.16s24.29 30 62.91 46.39 75.77 8.06 91 5c5.91-1.19 19.63-3.93 36.47-7 18 5.61 40.85 11.39 62.12 12.92 7.34.57 18.38-1.58 25.53-3.1zM399.54 146h.25c-.77 0-1.52.07-2.27.12.84-.05 1.48-.12 2.02-.12z"></path><path class="cls-5" d="M436.22 157.28a36.81 36.81 0 0 0-.45-6.87 5.73 5.73 0 0 0-2-3.07c-1.46-.9-8.15-1.77-11.42-1.94-1-.05-3.59 0-7.05.06l6.71-.3-1-.31c-1.29-.54-4.79-2-6.21-2.4-8.54-2.73-39.66-6.34-74.34-10.22l-3-.33c9.72-1.24 18.94-2.19 27-2.68 38.81-2.35 76.84 5.34 97.78 11.76 10.46 3.2 22.7 7 32.32 10l16.63 5.22c-24.38.42-64.7 1.01-74.97 1.08z"></path><path class="cls-6" d="M555.25 153.8l-.5.07c-2 .26-3.92.48-5.81.69h-.15l-1.35.14-1.05.11c-3.25.3-6.46.56-9.18.74h-.64l-.76.05c-2 .11-3.87.2-5.49.25h-.25c-4.32-.44-37.88-9.7-59.79-17.21-32.86-11.26-77.15-15.15-77.15-15.15a469.73 469.73 0 0 1 79.92 10.31c34.42 7.8 82.2 20 82.2 20z"></path><path class="cls-7" d="M578.14 116.33l-3.58.19a8.57 8.57 0 0 1-2.31-1.52c-1-1-4.93-5.46-4.93-5.46l3.82.07c3.44 3.08 6.36 6.05 7 6.72zM571.4 117.31s-5 .69-7 .7-1.84-1.72-1.84-1.72l-.8-6.72h4.42l6 6.41c.66 1.02-.78 1.33-.78 1.33zM561.22 117.93l-5.48.41a2.11 2.11 0 0 1-1.93-1.91 22.58 22.58 0 0 1-.3-4.42l1.81-2.6 4.9-.12z"></path><path class="cls-6" d="M182.61 146.78c-23.9-4.7-34.48-10.82-51.69-21.61-20.44-12.82-27.3-24-33.13-30-1.69-1.74-20.52-18.72-40.51-36.7A201.1 201.1 0 0 0 18.8 31.06L12.92 9.14c7.87 3.1 24 16.69 36.67 28.94s51.8 53.21 54.47 56.83c7 9.53 9.76 13.58 26.32 27.12a134.41 134.41 0 0 0 52.23 24.75zM184.66 147.17c-.17 0-.87-.15-2-.39z"></path><path class="cls-8" d="M520 131.58a2.55 2.55 0 0 1-2.42-1.36 5.75 5.75 0 0 1-.5-2.68c-.51-15.27-1.54-21.87-2-25.05v-.22a3.24 3.24 0 0 1 .64-2.83 2.72 2.72 0 0 1 2.08-.8h10.36c.92 0 2.64-.08 3.23 2.69 2.87 8.53 2.68 26.17 2.67 27.16a2.94 2.94 0 0 1-.79 2.27 3 3 0 0 1-2.08.83l-11.09.05zm-2.4-31.21a1 1 0 0 0-.7.26 1.78 1.78 0 0 0-.18 1.37v.22c.51 3.21 1.55 9.89 2.06 25.28a4.48 4.48 0 0 0 .3 1.9c.11.22.28.45.89.45l11.12-.06a1.23 1.23 0 0 0 .83-.32 1.33 1.33 0 0 0 .29-1c0-.19.21-18.36-2.6-26.66v-.1c-.28-1.39-.69-1.38-1.48-1.35h-.29l-10.19.05h-.06z"></path><path class="cls-9" d="M518.7 134.5a4 4 0 0 1-3.81-4.16h3.47c0 .19 0 .68.41.71l14-.07a1.91 1.91 0 0 0 .06-.6l3.45-.37a4.61 4.61 0 0 1-.94 3.35 3.26 3.26 0 0 1-2.53 1.09z"></path><path class="cls-8" d="M373.28 127.16a4.56 4.56 0 0 1-4.53-4.51v-8.72a4.53 4.53 0 0 1 4.51-4.55 4.52 4.52 0 0 1 4.53 4.5v8.73a4.48 4.48 0 0 1-1.31 3.2 4.55 4.55 0 0 1-3.2 1.35zm0-16a2.8 2.8 0 0 0-2.78 2.81v8.72a2.8 2.8 0 0 0 2.79 2.78 2.74 2.74 0 0 0 2-.83 2.77 2.77 0 0 0 .82-2l-.05-8.73a2.79 2.79 0 0 0-2.82-2.8zM359.52 127.22a4.54 4.54 0 0 1-4.53-4.51v-8.72a4.56 4.56 0 0 1 4.51-4.55A4.56 4.56 0 0 1 364 114v8.72a4.53 4.53 0 0 1-4.51 4.55zm0-16a2.8 2.8 0 0 0-2.78 2.8v8.73a2.8 2.8 0 0 0 2.79 2.78 2.8 2.8 0 0 0 2.78-2.81V114a2.8 2.8 0 0 0-2.79-2.78zM121.07 133.75a3.07 3.07 0 0 1-2-.8 3 3 0 0 1-.9-2.25c0-.85-.67-18.85.56-26.95.3-3.07 2.71-3 3.62-3h10.33a2.86 2.86 0 0 1 2.1.77 3.28 3.28 0 0 1 .77 2.8v.23c-.32 3.17-1 9.77-.68 25a4.46 4.46 0 0 1-.8 3.32 2.59 2.59 0 0 1-2 .76c-1.69 0-10.85.15-10.94.15zm1-31.29c-1 0-1.51.15-1.64 1.48-1.21 8-.56 26.48-.55 26.67a1.39 1.39 0 0 0 .36 1 1.36 1.36 0 0 0 .84.32c.11 0 9.29-.14 11-.14a.93.93 0 0 0 .71-.22 3.13 3.13 0 0 0 .32-2.07c-.31-15.4.37-22.07.69-25.28v-.23a1.87 1.87 0 0 0-.28-1.39 1.09 1.09 0 0 0-.75-.27h-10.71z"></path><path class="cls-9" d="M119.43 136.57a3.38 3.38 0 0 1-2.52-1 4.68 4.68 0 0 1-1.09-3.3l3.46.21-1.73-.11 1.74.09a1.7 1.7 0 0 0 .11.68l14-.07c.23 0 .36-.09.34-.63l3.46-.17a4 4 0 0 1-1 3 4 4 0 0 1-2.66 1.23h-.06l-14 .07z"></path><path class="cls-5" d="M571 139.36a.39.39 0 0 1-.4-.4.41.41 0 0 1 .4-.4.4.4 0 0 1 .4.4.39.39 0 0 1-.4.4M564.28 138.77a.39.39 0 0 1 .4-.4.4.4 0 1 1-.4.4M563 138.77a.39.39 0 0 1 .39-.4.41.41 0 0 1 .41.4.4.4 0 0 1-.4.4.39.39 0 0 1-.4-.4M566 140.49a.4.4 0 0 1 0-.8.39.39 0 0 1 .4.39.41.41 0 0 1-.4.41M566 141.79a.4.4 0 0 1-.4-.4.39.39 0 0 1 .39-.4.4.4 0 0 1 .41.39.42.42 0 0 1-.4.41M571.61 133.11a.4.4 0 0 1 0-.57.4.4 0 0 1 .56 0 .4.4 0 0 1 0 .57.4.4 0 0 1-.56 0M570.69 134a.4.4 0 0 1 .57-.57.42.42 0 0 1 0 .57.4.4 0 0 1-.57 0M569.38 135.36a.4.4 0 1 1 .57-.57.4.4 0 0 1-.57.57M568.47 136.28a.4.4 0 1 1 .56-.57.39.39 0 0 1 0 .56.4.4 0 0 1-.56 0M567.55 137.2a.4.4 0 1 1 .57 0 .41.41 0 0 1-.57 0M566.64 138.12a.4.4 0 1 1 .56-.56.4.4 0 1 1-.56.56M565.72 139.05a.41.41 0 0 1 0-.57.4.4 0 0 1 .57 0 .4.4 0 0 1-.57.57M572.56 132.15a.42.42 0 0 1 0-.57.4.4 0 0 1 .57 0 .4.4 0 0 1-.57.57M569.24 133.76a.4.4 0 1 1 .4.39.39.39 0 0 1-.4-.39M567.94 133.76a.4.4 0 1 1 .4.4.4.4 0 0 1-.4-.4M566.64 133.77a.39.39 0 0 1 .4-.4.39.39 0 0 1 .4.39.39.39 0 0 1-.4.4.39.39 0 0 1-.4-.39M565.34 133.77a.4.4 0 1 1 .4.4.4.4 0 0 1-.4-.4M571 135.47a.4.4 0 1 1 0-.8.39.39 0 0 1 .41.39.41.41 0 0 1-.4.41M571 136.77a.4.4 0 0 1-.4-.4.41.41 0 0 1 .4-.41.4.4 0 0 1 .4.4.42.42 0 0 1-.4.41M571 138.06a.39.39 0 0 1-.4-.4.39.39 0 0 1 .4-.4.4.4 0 1 1 0 .8"></path><path class="cls-10" d="M422 145.16l-6.71.3c-4.39.1-10.12.3-15.51.56h-.25c-.5 0-1.18 0-2 .12-3.81.2-7.33.44-9.9.69a168.31 168.31 0 0 0-19.91 3.93c-7.15 1.52-18.19 3.67-25.58 3.14-21.33-1.52-44.14-7.3-62.14-12.9a434.062 434.062 0 0 1-25.33-8.76 27.91 27.91 0 0 1 8.7-4s14.26.1 18 .08 6.35 3.32 6.35 3.32l17.61 1.67 12.05 1.47c12.61 1.52 31.38 3.75 37.28 4.29 9.16.84 60.77 6.23 60.77 6.23l6.16-.2-.46-.2z"></path><path class="cls-10" d="M387.62 146.83c2.57-.25 6.09-.49 9.9-.69-6.09.49-19.88 2.58-24.23 3.43-1.24.25-3.19.68-5.58 1.19a168.31 168.31 0 0 1 19.91-3.93zM415.3 145.46c-5.49.24-12.78.53-15.51.56 5.39-.26 11.12-.46 15.51-.56z"></path><path class="cls-5" d="M263.33 128.19a27.91 27.91 0 0 0-8.7 4c-3.77 2.73-4.58 5.35-4.58 5.35h-4L246 125.8l-7.27-6.8h3.05l18.81 8h-.3l.18.07z"></path><path class="cls-4" d="M263.33 128.19l-2.86-1.1-.18-.07h.3z"></path><path class="cls-11" d="M421.51 145.05l-6.16.2s-51.61-5.39-60.77-6.23c-5.9-.54-24.67-2.77-37.28-4.29l-1.59-.19c-.28 0-.56-.08-.84-.1l-5.79-.71h-.35l-.55-.07-.5-.06-1.1-.13-.42-.05-.45-.06h-.46l-17.61-1.67s-2.65-3.34-6.35-3.32-18-.08-18-.08l-2.86-1.1-.18-.07 20.29-.07h.34c.51 0 1.19 0 2.11.08h.31c2.25.13 5.86.43 11.73.93h.28c2.62.22 23.25 1.86 42.15 3.91l3 .33c34.68 3.88 65.8 7.49 74.34 10.22 1.42.45 4.92 1.86 6.21 2.4z"></path><path class="cls-3" d="M346.8 154.5l13.83-2-9.73 1.43c.28 1 .83 4 .68 12.07a97.42 97.42 0 0 1-.67 10.27c-1.73-.17-3.3-.34-4.41-.47a48.16 48.16 0 0 1-.92-14.09 37.69 37.69 0 0 1 1.22-7.21zM362.25 152.16a69.68 69.68 0 0 1 1.16 13.66 105.82 105.82 0 0 1-.85 11.62l-.31-.09-.9-.08a115.69 115.69 0 0 0 .7-12.8c.06-7.28-.58-10.7-1-12l.39-.06zM436.22 157.28c-.08 7-1.33 15.46-2.51 18.11-.54 1.23-2.15 2.18-4 2.89.8-2.84 1.59-7.45 1.88-14.87.4-9.89-.05-14.65-.48-16.9a10 10 0 0 1 2.71.83 5.73 5.73 0 0 1 2 3.07 36.81 36.81 0 0 1 .4 6.87z"></path><path class="cls-5" d="M431.54 163.41c-.29 7.42-1.08 12-1.88 14.87q-.56.21-1.14.39l-.46.14c-.67.19-1.34.37-2 .52l-.68.15-.29.06h-.1c-.65.13-1.26.24-1.79.32l-.43.07h-.22l-.45.06-.86.11s-19.35 1-33.11.87h-1.95l-1.81-.07h-.13a109.05 109.05 0 0 1-21.69-3.47 105.82 105.82 0 0 0 .85-11.62 69.68 69.68 0 0 0-1.16-13.66l.3-.08c3.86-1 16.65-4.32 24.63-5.2h.44c7.69-.72 23.82-1.33 31.24-1.43H423.74l1 .1.9.09.49.06c1.68.2 3.46.46 4.9.76.46 2.31.91 7.07.51 16.96z"></path><path class="cls-12" d="M362.05 164.47a115.69 115.69 0 0 1-.7 12.8l-.55-.05-.62-.06H359.27l-.86-.08-.41-.08h-.18l-2.09-.2-.65-.06-.65-.06-1.32-.13-.66-.07-.65-.06-.84-.09a97.42 97.42 0 0 0 .67-10.27c.15-8.1-.4-11.08-.68-12.07l9.73-1.43.39-.06c.4 1.27 1.04 4.69.98 11.97zM361.35 177.27l-.55-.05z"></path><path class="cls-13" d="M381.78 164.43v.7a2.14 2.14 0 0 1-.43.18 1.91 1.91 0 0 1-.43.07 1.84 1.84 0 0 1-1.36-.54 1.75 1.75 0 0 1-.56-1.33 1.93 1.93 0 0 1 .52-1.4 1.8 1.8 0 0 1 1.38-.58 1.77 1.77 0 0 1 1.33.56 1.71 1.71 0 0 1 .36.59 1.74 1.74 0 0 1 .13.67V165a2.1 2.1 0 0 1-.55 1.55 1.86 1.86 0 0 1-1.37.5 3.44 3.44 0 0 1-1.22-.21l.16-.61a4.34 4.34 0 0 0 1 .18 1.38 1.38 0 0 0 .86-.26 1 1 0 0 0 .41-.92v-1.72a1.41 1.41 0 0 0-.35-1 1.09 1.09 0 0 0-.83-.35 1.1 1.1 0 0 0-.9.41 1.47 1.47 0 0 0-.29.95 1.12 1.12 0 0 0 .36.87 1.21 1.21 0 0 0 .88.32 1.84 1.84 0 0 0 .9-.28zM383.1 163.44a1.91 1.91 0 0 1 1.91-1.93 1.89 1.89 0 0 1 1.34.53 1.83 1.83 0 0 1 .58 1.39 1.92 1.92 0 1 1-3.83 0zm.71 0a1.25 1.25 0 0 0 .34.92 1.24 1.24 0 0 0 1.74 0 1.28 1.28 0 0 0 .33-.92 1.25 1.25 0 0 0-.34-.92 1.24 1.24 0 0 0-1.74 0 1.28 1.28 0 0 0-.33.92zM388.22 165.27h-.72v-5.39h.72zM389.58 165.26h-.67v-2.15a1.61 1.61 0 0 1 .45-1.18 1.67 1.67 0 0 1 2.25 0 1.61 1.61 0 0 1 .45 1.17v2.16h-.68v-2.16a1 1 0 0 0-.27-.7.87.87 0 0 0-1.26 0 1 1 0 0 0-.27.71zM395.52 159.85h.68v3.43a2.08 2.08 0 0 1-.51 1.48 1.76 1.76 0 0 1-1.34.56 1.73 1.73 0 0 1-1.4-.59 2.09 2.09 0 0 1-.52-1.41A1.8 1.8 0 0 1 393 162a1.69 1.69 0 0 1 .56-.4 1.75 1.75 0 0 1 .67-.14 2 2 0 0 1 1.05.26v.7a1.9 1.9 0 0 0-.45-.23 1.45 1.45 0 0 0-.48-.09 1.2 1.2 0 0 0-.88.35 1.31 1.31 0 0 0-.33.93 1.28 1.28 0 0 0 .35.92 1.18 1.18 0 0 0 .89.36 1.05 1.05 0 0 0 .83-.38 1.73 1.73 0 0 0 .35-1.14zM397 160.71a.43.43 0 0 1 .1-.29.41.41 0 0 1 .71.29.39.39 0 0 1-.1.28.46.46 0 0 1-.3.13.38.38 0 0 1-.3-.12.39.39 0 0 1-.11-.29zm.76 4.51h-.67v-3.69h.68zM403.55 160.69l-.48.52a7.3 7.3 0 0 0-.81-.59 1.88 1.88 0 0 0-.93-.21 2 2 0 0 0-1.47.62 2.12 2.12 0 0 0-.43.68 2.24 2.24 0 0 0-.15.81 2.07 2.07 0 0 0 .59 1.48 2 2 0 0 0 1.48.62 2 2 0 0 0 1.35-.48 1.71 1.71 0 0 0 .62-1.3h-1.88v-.68h2.63v.46a2.48 2.48 0 0 1-.87 2 2.93 2.93 0 0 1-.87.51 2.8 2.8 0 0 1-2.05 0 3 3 0 0 1-.91-.59 2.91 2.91 0 0 1-.62-.89 2.85 2.85 0 0 1 0-2.17 2.92 2.92 0 0 1 .61-.9 3 3 0 0 1 .91-.6 2.76 2.76 0 0 1 1.07-.21 3 3 0 0 1 1.18.21 3.29 3.29 0 0 1 1.03.71zM404.41 163.34A1.78 1.78 0 0 1 405 162a1.84 1.84 0 0 1 1.33-.55 1.93 1.93 0 0 1 1.35.53 1.9 1.9 0 0 1 .58 1.39 1.92 1.92 0 0 1-3.25 1.4 1.81 1.81 0 0 1-.6-1.43zm.7 0a1.25 1.25 0 0 0 .35.92 1.23 1.23 0 0 0 1.73 0 1.25 1.25 0 0 0 .34-.92 1.29 1.29 0 0 0-.34-.92 1.15 1.15 0 0 0-.88-.35 1.12 1.12 0 0 0-.86.36 1.25 1.25 0 0 0-.34.91zM408.93 164.76a.42.42 0 0 1 .13-.32.44.44 0 0 1 .32-.13.47.47 0 0 1 .32.12.44.44 0 0 1 .13.33.39.39 0 0 1-.13.32.42.42 0 0 1-.32.13.44.44 0 0 1-.32-.13.41.41 0 0 1-.13-.32zM410.94 160.64a.39.39 0 0 1 .4-.4.37.37 0 0 1 .31.11.47.47 0 0 1 0 .58.43.43 0 0 1-.6 0 .42.42 0 0 1-.11-.29zm.77 4.52H411v-3.69h.68zM413.31 165.15h-.68V163a1.61 1.61 0 0 1 .45-1.18 1.67 1.67 0 0 1 2.25 0 1.61 1.61 0 0 1 .45 1.17v2.16h-.67V163a1 1 0 0 0-.28-.7.87.87 0 0 0-1.26 0 .94.94 0 0 0-.26.7z"></path><path class="cls-14" d="M411.2 124.35l-.12-25.85h3.8l.12 25.85zm17.62-.09l-.05-10.36a4.28 4.28 0 0 0-1.21-3.11 3.69 3.69 0 0 0-2.85-1.24 3.81 3.81 0 0 0-2.85 1.27 4.23 4.23 0 0 0-1.17 3.12v10.36h-3.58v-10.37a7.67 7.67 0 0 1 2.12-5.63 7.32 7.32 0 0 1 5.47-2.21 7.44 7.44 0 0 1 5.49 2.16 7.6 7.6 0 0 1 2.21 5.61l.05 10.37zm21.42-2.43a8.42 8.42 0 0 1-6.46 2.73 8.65 8.65 0 0 1-6.78-2.85 9.87 9.87 0 0 1-2.46-6.81 8.57 8.57 0 0 1 2.48-6.26 8.23 8.23 0 0 1 6.06-2.61 10.28 10.28 0 0 1 5 1.2l.11.06v3.86l-.32-.21a9.3 9.3 0 0 0-2.12-1 6.14 6.14 0 0 0-2.16-.45 5.33 5.33 0 0 0-4 1.6 5.84 5.84 0 0 0-1.49 4.22 5.93 5.93 0 0 0 1.57 4.24 5.39 5.39 0 0 0 4.07 1.6 4.78 4.78 0 0 0 3.82-1.77 7.58 7.58 0 0 0 1.54-5.18l-.08-15.85h3.62l.08 16.44a10 10 0 0 1-2.51 7.09m5 2.31l-.08-17.81h3.62l.08 17.8zm3.29-20a2 2 0 0 1-1.57.62 2.13 2.13 0 0 1-1.57-.61 2.27 2.27 0 0 1-.58-1.52 2.14 2.14 0 0 1 .56-1.49 2 2 0 0 1 1.57-.62 1.89 1.89 0 0 1 1.54.64 2 2 0 0 1 .61 1.45 2.17 2.17 0 0 1-.56 1.53m44.7 6.7a5.66 5.66 0 0 0-7.93 0 6.54 6.54 0 0 0 .07 8.42 5.61 5.61 0 0 0 7.9 0 6.51 6.51 0 0 0 0-8.43m2.64 10.86a9.45 9.45 0 0 1-13 .06 9.48 9.48 0 0 1-.1-13.27 9.32 9.32 0 0 1 13-.06 8.68 8.68 0 0 1 2.8 6.6 8.83 8.83 0 0 1-2.7 6.67m-22.16-.44a13.75 13.75 0 0 1-18.41-.55 13.26 13.26 0 0 1-.09-18.93 13.14 13.14 0 0 1 9.48-4 14.14 14.14 0 0 1 5.72 1 16.23 16.23 0 0 1 5 3.53l.14.14-2.56 2.77-.14-.13a26.16 26.16 0 0 0-3.78-2.73 9.54 9.54 0 0 0-11.08 1.87 9.74 9.74 0 0 0-2.69 6.94 9.62 9.62 0 0 0 2.76 6.87 9 9 0 0 0 6.81 2.83 9.66 9.66 0 0 0 6.37-2.22 7.39 7.39 0 0 0 2.75-5.8h-8.88v-3.58l12.87-.06v2.36a11.91 11.91 0 0 1-4.19 9.57"></path><path class="cls-15" d="M508.29 114.94a1.23 1.23 0 0 0-1.23-1.22 1.24 1.24 0 0 0-1.22 1.24v1.33a1.22 1.22 0 0 0 1.22 1.22 1.24 1.24 0 0 0 1.22-1.24zm-8.83 0a1.23 1.23 0 0 0-2.45 0v1.33a1.22 1.22 0 0 0 1.22 1.22 1.25 1.25 0 0 0 1.22-1.23zm-10.06-1.18a1.22 1.22 0 0 0-.86.36 1.24 1.24 0 0 0-.36.87v1.33a1.23 1.23 0 0 0 2.45 0V115a1.24 1.24 0 0 0-1.23-1.19zm-8.82 0a1.21 1.21 0 0 0-1.22 1.23v1.33a1.23 1.23 0 0 0 2.1.86 1.25 1.25 0 0 0 .35-.87v-1.33a1.24 1.24 0 0 0-1.23-1.13zm-8.83 0a1.21 1.21 0 0 0-1.22 1.23v1.33a1.24 1.24 0 0 0 1.23 1.22 1.23 1.23 0 0 0 .87-.36 1.21 1.21 0 0 0 .35-.87v-1.33a1.23 1.23 0 0 0-1.23-1.09zm-7.06 1.26a1.22 1.22 0 0 0-2.09-.86 1.24 1.24 0 0 0-.36.87v1.33a1.22 1.22 0 0 0 1.22 1.22 1.23 1.23 0 0 0 1.22-1.23zm-8.83 0a1.23 1.23 0 1 0-2.45 0v1.33a1.22 1.22 0 0 0 1.22 1.22 1.22 1.22 0 0 0 1.22-1.23zM445.8 114a1.23 1.23 0 0 0-1.22 1.23v1.33a1.23 1.23 0 0 0 1.23 1.22 1.21 1.21 0 0 0 1.22-1.23v-1.33a1.24 1.24 0 0 0-1.23-1.22zm-8.82 0a1.19 1.19 0 0 0-.87.37 1.17 1.17 0 0 0-.35.86v1.33a1.23 1.23 0 1 0 2.45 0v-1.33a1.24 1.24 0 0 0-1.21-1.18zm-6.41 1.26a1.23 1.23 0 0 0-2.45 0v1.33a1.22 1.22 0 0 0 1.22 1.22 1.19 1.19 0 0 0 .86-.37 1.22 1.22 0 0 0 .36-.86zm-8 0a1.23 1.23 0 0 0-1.23-1.22 1.27 1.27 0 0 0-.86.37 1.23 1.23 0 0 0-.36.87v1.33a1.22 1.22 0 0 0 1.22 1.22 1.24 1.24 0 0 0 1.22-1.24zm-10.73-1.17a1.22 1.22 0 0 0-.86.36 1.24 1.24 0 0 0-.36.87v1.33a1.23 1.23 0 0 0 1.23 1.22 1.2 1.2 0 0 0 .86-.36 1.22 1.22 0 0 0 .36-.87v-1.33a1.24 1.24 0 0 0-1.2-1.14zm-7.07 1.26a1.22 1.22 0 0 0-2.09-.86 1.24 1.24 0 0 0-.36.87v1.33a1.22 1.22 0 0 0 1.22 1.22 1.23 1.23 0 0 0 1.22-1.23zm-8.64 0a1.23 1.23 0 1 0-2.45 0v1.33a1.22 1.22 0 0 0 1.22 1.22 1.25 1.25 0 0 0 1.22-1.23zm-9.91-1.18a1.21 1.21 0 0 0-1.22 1.23v1.33a1.24 1.24 0 0 0 1.23 1.22 1.19 1.19 0 0 0 .87-.37 1.17 1.17 0 0 0 .35-.86v-1.33a1.22 1.22 0 0 0-1.2-1.1zm-11.85 1.28a1.23 1.23 0 1 0-2.45 0v1.33a1.22 1.22 0 0 0 1.22 1.22 1.23 1.23 0 0 0 1.22-1.23zm-14.73-1.16a1.22 1.22 0 0 0-1.22 1.23V117a1.23 1.23 0 0 0 2.1.86 1.19 1.19 0 0 0 .35-.87v-1.33a1.24 1.24 0 0 0-1.2-1.25zm-9.88 0a1.21 1.21 0 0 0-1.22 1.23V117a1.24 1.24 0 0 0 1.23 1.22 1.19 1.19 0 0 0 .87-.37 1.17 1.17 0 0 0 .36-.85v-1.33a1.22 1.22 0 0 0-1.21-1.21zm-7.46 1.26a1.23 1.23 0 1 0-2.45 0v1.33a1.22 1.22 0 0 0 1.22 1.22 1.19 1.19 0 0 0 .86-.37 1.22 1.22 0 0 0 .36-.86zm-9.91-1.18a1.21 1.21 0 0 0-1.22 1.23v1.33a1.24 1.24 0 0 0 1.23 1.22 1.23 1.23 0 0 0 .87-.36 1.21 1.21 0 0 0 .35-.87v-1.33a1.24 1.24 0 0 0-1.2-1.05zm-8.78 0a1.21 1.21 0 0 0-1.22 1.23v1.33a1.23 1.23 0 1 0 2.45 0v-1.13a1.24 1.24 0 0 0-1.2-1.22zm-7.46 1.26a1.22 1.22 0 0 0-2.09-.86 1.26 1.26 0 0 0-.36.87v1.33a1.22 1.22 0 0 0 1.3 1.43 1.22 1.22 0 0 0 .86-.36 1.24 1.24 0 0 0 .36-.87zm-9.68-1.18a1.23 1.23 0 0 0-1.22 1.23v1.33a1.23 1.23 0 0 0 2.45 0v-1.33a1.24 1.24 0 0 0-1.2-1.02zm-7.47 1.47a1.23 1.23 0 1 0-2.45 0v1.33a1.22 1.22 0 0 0 1.22 1.22 1.23 1.23 0 0 0 1.22-1.23zm-8.59 0a1.22 1.22 0 0 0-2.09-.86 1.26 1.26 0 0 0-.36.87v1.33a1.22 1.22 0 0 0 1.22 1.22 1.22 1.22 0 0 0 1.22-1.23zm-9.86-1.18a1.22 1.22 0 0 0-1.22 1.23v1.33a1.23 1.23 0 0 0 1.23 1.22 1.21 1.21 0 0 0 1.22-1.23V116a1.24 1.24 0 0 0-1.28-1.22zm-8.59 0a1.19 1.19 0 0 0-.87.37 1.17 1.17 0 0 0-.35.86v1.33a1.23 1.23 0 0 0 1.23 1.22 1.21 1.21 0 0 0 1.22-1.23V116a1.24 1.24 0 0 0-1.28-1.18zm-7.51 1.26a1.23 1.23 0 0 0-1.23-1.22 1.19 1.19 0 0 0-.86.37 1.22 1.22 0 0 0-.36.86v1.33a1.22 1.22 0 0 0 1.22 1.22 1.22 1.22 0 0 0 1.22-1.23zm-8.73 0a1.23 1.23 0 0 0-1.23-1.22 1.25 1.25 0 0 0-1.22 1.23v1.33a1.22 1.22 0 0 0 1.22 1.22 1.23 1.23 0 0 0 1.22-1.23zm-10-1.18a1.23 1.23 0 0 0-1.22 1.23v1.33a1.23 1.23 0 1 0 2.45 0v-1.33a1.24 1.24 0 0 0-1.24-1.11zm-7.51 1.26A1.23 1.23 0 0 0 237 115a1.24 1.24 0 0 0-1.22 1.23v1.33a1.22 1.22 0 0 0 1.22 1.22 1.2 1.2 0 0 0 .86-.36 1.19 1.19 0 0 0 .36-.87zm-8.73 0a1.23 1.23 0 0 0-1.23-1.22 1.21 1.21 0 0 0-.86.37 1.18 1.18 0 0 0-.36.86v1.34a1.22 1.22 0 0 0 1.22 1.22 1.24 1.24 0 0 0 1.22-1.24zm-10-1.18a1.3 1.3 0 0 0-.87.37 1.22 1.22 0 0 0-.35.87v1.33a1.22 1.22 0 0 0 2.1.85 1.17 1.17 0 0 0 .35-.86v-1.34a1.24 1.24 0 0 0-1.2-1.06zm-7.48 1.43a1.23 1.23 0 0 0-2.45 0v1.33a1.22 1.22 0 0 0 1.22 1.22 1.25 1.25 0 0 0 1.22-1.23zm-8.73 0a1.23 1.23 0 1 0-2.45 0v1.33a1.22 1.22 0 0 0 1.22 1.22 1.24 1.24 0 0 0 1.22-1.23zm-10-1.18a1.21 1.21 0 0 0-1.22 1.23v1.33a1.24 1.24 0 0 0 1.23 1.22 1.22 1.22 0 0 0 1.22-1.23v-1.33a1.22 1.22 0 0 0-1.19-1.18zm-8.74 0a1.23 1.23 0 0 0-1.22 1.23v1.33a1.23 1.23 0 0 0 2.45 0v-1.33a1.24 1.24 0 0 0-1.19-1.15zm-7.5 1.26a1.23 1.23 0 1 0-2.45 0v1.33a1.22 1.22 0 0 0 1.22 1.22 1.23 1.23 0 0 0 1.22-1.23zm-8.73 0a1.23 1.23 0 0 0-1.23-1.22 1.21 1.21 0 0 0-1.22 1.23v1.33a1.24 1.24 0 0 0 1.23 1.22 1.22 1.22 0 0 0 .86-.36 1.26 1.26 0 0 0 .36-.87zm-10-1.18a1.23 1.23 0 0 0-1.22 1.23v1.33a1.23 1.23 0 0 0 1.23 1.22 1.21 1.21 0 0 0 1.22-1.23v-1.33a1.24 1.24 0 0 0-1.16-1.1z"></path><path class="cls-5" d="M47.26 33.78L46 32.49l9.61-9.67 1.3 1.29zM50 36.49l-1.21-1.21 3.84-3.87a4 4 0 0 1 2.91-1.3 3.83 3.83 0 0 1 2.8 1.21 4 4 0 0 1 1.25 2.81A4.11 4.11 0 0 1 58.27 37l-3.84 3.87-1.22-1.17 3.85-3.87a2.48 2.48 0 0 0 .76-1.74 2.11 2.11 0 0 0-.65-1.61 2.13 2.13 0 0 0-1.61-.64 2.48 2.48 0 0 0-1.74.78zM70.57 37.73l1.22 1.2-6.12 6.17a5.27 5.27 0 0 1-3.56 1.7 4.82 4.82 0 0 1-4.85-4.95 5.16 5.16 0 0 1 1.61-3.45 4.57 4.57 0 0 1 3.29-1.4 4.41 4.41 0 0 1 3.17 1.25 5.38 5.38 0 0 1 1.41 2.34l-1.26 1.27a4.7 4.7 0 0 0-.4-1.22 3.46 3.46 0 0 0-.7-1 3 3 0 0 0-2.21-1A3.61 3.61 0 0 0 58.91 42a3 3 0 0 0 .94 2.23 2.66 2.66 0 0 0 2.17.81 4.26 4.26 0 0 0 2.65-1.4zM65.26 51.67l-1.21-1.21 6.58-6.63L71.85 45zM72 42.22a1 1 0 0 1 .71-.32 1.09 1.09 0 0 1 1.05 1.1 1 1 0 0 1-.32.71 1.1 1.1 0 0 1-.71.33 1 1 0 0 1-.75-.33.92.92 0 0 1-.32-.75 1.06 1.06 0 0 1 .34-.74zM84 54.18l-1.8.07a15.43 15.43 0 0 0-.39-2.5 4.87 4.87 0 0 0-1.28-2.06 5 5 0 0 0-3.76-1.52 5.29 5.29 0 0 0-2 .45 5.47 5.47 0 0 0-1.72 1.17 5.28 5.28 0 0 0-1.59 3.7A5 5 0 0 0 73 57.26a5.14 5.14 0 0 0 3.28 1.56 4.4 4.4 0 0 0 3.43-1.21l-3.37-3.35 1.2-1.26 4.72 4.7-.82.83a6.3 6.3 0 0 1-5.13 2 6.79 6.79 0 0 1-2.46-.64 7.24 7.24 0 0 1-2.07-1.44 7.14 7.14 0 0 1-1.55-2.29 7.31 7.31 0 0 1-.56-2.68 7.23 7.23 0 0 1 .5-2.71A6.92 6.92 0 0 1 74 46.91a7.25 7.25 0 0 1 2.71-.52 7.15 7.15 0 0 1 2.69.55 6.91 6.91 0 0 1 2.3 1.53A7.38 7.38 0 0 1 83.46 51a8.49 8.49 0 0 1 .54 3.18zM81 60.73a4.64 4.64 0 0 1 3.5-1.46 4.73 4.73 0 0 1 3.37 1.42 4.8 4.8 0 0 1 1.46 3.37 5 5 0 0 1-5 5 5 5 0 0 1-4.82-4.79A4.67 4.67 0 0 1 81 60.73zM82.29 62a3.25 3.25 0 0 0-1 2.26 3.14 3.14 0 0 0 3.12 3.1A3.61 3.61 0 0 0 87.67 64a3.14 3.14 0 0 0-3.13-3.1 3.24 3.24 0 0 0-2.25 1.1z"></path></g></g></svg>